solid nostrils
 facet normal 0 0 -1
    outer loop
      vertex -3.76359 104.154 20
      vertex -2.29783 102.924 20
      vertex -2.37321 101.572 20
    endloop
  endfacet
  facet normal 0 0 -1
    outer loop
      vertex -5.08159 103.845 20
      vertex -2.37321 101.572 20
      vertex -3.00075 99.9811 20
    endloop
  endfacet
  facet normal 0 0 -1
    outer loop
      vertex -2.29783 102.924 20
      vertex -3.76359 104.154 20
      vertex -2.78606 103.83 20
    endloop
  endfacet
  facet normal 0 0 -1
    outer loop
      vertex -6.53941 102.95 20
      vertex -3.00075 99.9811 20
      vertex -4.08489 98.393 20
    endloop
  endfacet
  facet normal 0 0 -1
    outer loop
      vertex -2.37321 101.572 20
      vertex -5.08159 103.845 20
      vertex -3.76359 104.154 20
    endloop
  endfacet
  facet normal 0 0 -1
    outer loop
      vertex -7.91511 101.607 20
      vertex -4.08489 98.393 20
      vertex -5.46059 97.0496 20
    endloop
  endfacet
  facet normal 0 0 -1
    outer loop
      vertex -3.00075 99.9811 20
      vertex -6.53941 102.95 20
      vertex -5.08159 103.845 20
    endloop
  endfacet
  facet normal 0 0 -1
    outer loop
      vertex -8.99925 100.019 20
      vertex -5.46059 97.0496 20
      vertex -6.91841 96.1553 20
    endloop
  endfacet
  facet normal 0 0 -1
    outer loop
      vertex -4.08489 98.393 20
      vertex -7.91511 101.607 20
      vertex -6.53941 102.95 20
    endloop
  endfacet
  facet normal 0 0 -1
    outer loop
      vertex -9.62679 98.4279 20
      vertex -6.91841 96.1553 20
      vertex -8.23641 95.8464 20
    endloop
  endfacet
  facet normal 0 0 -1
    outer loop
      vertex -5.46059 97.0496 20
      vertex -8.99925 100.019 20
      vertex -7.91511 101.607 20
    endloop
  endfacet
  facet normal 0 0 -1
    outer loop
      vertex -9.70217 97.0763 20
      vertex -8.23641 95.8464 20
      vertex -9.21394 96.1698 20
    endloop
  endfacet
  facet normal 0 0 -1
    outer loop
      vertex -6.91841 96.1553 20
      vertex -9.62679 98.4279 20
      vertex -8.99925 100.019 20
    endloop
  endfacet
  facet normal 0 0 -1
    outer loop
      vertex -8.23641 95.8464 20
      vertex -9.70217 97.0763 20
      vertex -9.62679 98.4279 20
    endloop
  endfacet
  facet normal 0 0 -1
    outer loop
      vertex 8.23641 95.8464 20
      vertex 9.70217 97.0763 20
      vertex 9.21394 96.1698 20
    endloop
  endfacet
  facet normal -0 0 -1
    outer loop
      vertex 9.70217 97.0763 20
      vertex 8.23641 95.8464 20
      vertex 9.62679 98.4279 20
    endloop
  endfacet
  facet normal 0 0 -1
    outer loop
      vertex 6.91841 96.1553 20
      vertex 9.62679 98.4279 20
      vertex 8.23641 95.8464 20
    endloop
  endfacet
  facet normal -0 0 -1
    outer loop
      vertex 9.62679 98.4279 20
      vertex 6.91841 96.1553 20
      vertex 8.99925 100.019 20
    endloop
  endfacet
  facet normal 0 0 -1
    outer loop
      vertex 5.46059 97.0496 20
      vertex 8.99925 100.019 20
      vertex 6.91841 96.1553 20
    endloop
  endfacet
  facet normal -0 0 -1
    outer loop
      vertex 8.99925 100.019 20
      vertex 5.46059 97.0496 20
      vertex 7.91511 101.607 20
    endloop
  endfacet
  facet normal 0 0 -1
    outer loop
      vertex 4.08489 98.393 20
      vertex 7.91511 101.607 20
      vertex 5.46059 97.0496 20
    endloop
  endfacet
  facet normal -0 0 -1
    outer loop
      vertex 7.91511 101.607 20
      vertex 4.08489 98.393 20
      vertex 6.53941 102.95 20
    endloop
  endfacet
  facet normal 0 0 -1
    outer loop
      vertex 3.00075 99.9811 20
      vertex 6.53941 102.95 20
      vertex 4.08489 98.393 20
    endloop
  endfacet
  facet normal -0 0 -1
    outer loop
      vertex 6.53941 102.95 20
      vertex 3.00075 99.9811 20
      vertex 5.08159 103.845 20
    endloop
  endfacet
  facet normal 0 0 -1
    outer loop
      vertex 2.37321 101.572 20
      vertex 5.08159 103.845 20
      vertex 3.00075 99.9811 20
    endloop
  endfacet
  facet normal -0 0 -1
    outer loop
      vertex 5.08159 103.845 20
      vertex 2.37321 101.572 20
      vertex 3.76359 104.154 20
    endloop
  endfacet
  facet normal 0 0 -1
    outer loop
      vertex 2.29783 102.924 20
      vertex 3.76359 104.154 20
      vertex 2.37321 101.572 20
    endloop
  endfacet
  facet normal 0 0 -1
    outer loop
      vertex 3.76359 104.154 20
      vertex 2.29783 102.924 20
      vertex 2.78606 103.83 20
    endloop
  endfacet
endsolid nostrils
